<?xml version="1.0" encoding="UTF-8"?>
<svg id="Layer_1" xmlns="http://www.w3.org/2000/svg" version="1.1" xmlns:serif="http://www.serif.com/" xmlns:xlink="http://www.w3.org/1999/xlink" viewBox="0 0 718.3 567">
  <!-- Generator: Adobe Illustrator 30.5.1, SVG Export Plug-In . SVG Version: 2.1.4 Build 3)  -->
  <defs>
    <style>
      .st0 {
        fill: url(#linear-gradient25);
      }

      .st0, .st1, .st2, .st3, .st4, .st5, .st6, .st7, .st8, .st9, .st10, .st11, .st12, .st13, .st14, .st15, .st16, .st17, .st18, .st19, .st20, .st21 {
        fill-rule: evenodd;
      }

      .st22 {
        fill: url(#linear-gradient2);
      }

      .st1 {
        fill: url(#linear-gradient32);
      }

      .st2 {
        fill: #eee;
      }

      .st23 {
        fill: url(#linear-gradient10);
      }

      .st3 {
        fill: url(#linear-gradient24);
      }

      .st24, .st15 {
        opacity: .1;
      }

      .st25 {
        stroke-width: 1.2px;
      }

      .st25, .st26, .st27, .st28 {
        fill: none;
      }

      .st25, .st27, .st10 {
        stroke: #8ea4f3;
      }

      .st28 {
        fill: #8ea4f3;
        stroke-width: 0;
      }

      .st25, .st27, .st28 {
        stroke-linecap: round;
        stroke-linejoin: round;
      }

      .st29 {
        fill: url(#linear-gradient1);
      }

      .st4 {
        fill: url(#linear-gradient23);
        opacity: .3;
      }

      .st4, .st30, .st31, .st32, .st33, .st34 {
        isolation: isolate;
      }

      .st30 {
        fill: #007cad;
      }

      .st10 {
        fill: #7f96f0;
      }

      .st30, .st33, .st34 {
        font-family: TitilliumWeb-Regular, 'Titillium Web';
        font-size: 31.3px;
      }

      .st35 {
        fill: url(#linear-gradient9);
      }

      .st36 {
        fill: url(#linear-gradient18);
      }

      .st5 {
        fill: #e8e8e8;
      }

      .st37 {
        fill: url(#linear-gradient8);
      }

      .st38 {
        fill: url(#linear-gradient11);
      }

      .st39 {
        fill: url(#linear-gradient16);
      }

      .st6 {
        fill: #decdcd;
      }

      .st27 {
        stroke-width: 1.2px;
      }

      .st7 {
        fill: url(#linear-gradient21);
      }

      .st31, .st40 {
        fill: #0d37ce;
        font-family: TitilliumWeb-SemiBold, 'Titillium Web';
        font-size: 35.6px;
        font-weight: 600;
      }

      .st8 {
        fill: url(#linear-gradient27);
      }

      .st9 {
        fill: url(#linear-gradient31);
      }

      .st41 {
        fill: url(#linear-gradient29);
      }

      .st34 {
        fill: #1d1d1d;
      }

      .st33 {
        fill: #192e86;
      }

      .st42 {
        fill: url(#linear-gradient19);
      }

      .st43 {
        fill: url(#linear-gradient12);
      }

      .st44 {
        opacity: .1;
      }

      .st11 {
        fill: #e5e5e5;
      }

      .st45 {
        fill: url(#linear-gradient28);
      }

      .st46 {
        fill: url(#linear-gradient7);
      }

      .st47 {
        fill: url(#linear-gradient4);
      }

      .st12 {
        fill: url(#linear-gradient20);
      }

      .st48 {
        fill: url(#linear-gradient14);
      }

      .st49 {
        fill: url(#linear-gradient5);
      }

      .st13 {
        fill: #aebef6;
      }

      .st50 {
        fill: url(#linear-gradient3);
      }

      .st14 {
        fill: url(#linear-gradient30);
      }

      .st15, .st19 {
        fill: #838383;
      }

      .st28 {
        stroke: none;
        stroke-width: 0;
      }

      .st16 {
        fill: url(#linear-gradient26);
      }

      .st51 {
        fill: url(#linear-gradient15);
      }

      .st52 {
        fill: url(#linear-gradient17);
      }

      .st53 {
        fill: url(#linear-gradient6);
      }

      .st17 {
        fill: #d7e0fc;
      }

      .st18 {
        fill: #6d89ef;
      }

      .st54 {
        fill: #dcdcdc;
      }

      .st20 {
        fill: #d9d9d9;
      }

      .st55 {
        fill: url(#linear-gradient13);
      }

      .st56 {
        fill: url(#linear-gradient);
      }

      .st21 {
        fill: url(#linear-gradient22);
      }
    </style>
    <linearGradient id="linear-gradient" x1="337" y1="77.9" x2="363.4" y2="77.9" gradientUnits="userSpaceOnUse">
      <stop offset="0" stop-color="#d7e0fc"/>
      <stop offset="1" stop-color="#6d89ef"/>
    </linearGradient>
    <linearGradient id="linear-gradient1" x1="228.2" y1="57.2" x2="254.6" y2="57.2" xlink:href="#linear-gradient"/>
    <linearGradient id="linear-gradient2" x1="235.1" y1="98.8" x2="248.4" y2="98.8" gradientUnits="userSpaceOnUse">
      <stop offset="0" stop-color="#d7e0fc"/>
      <stop offset=".4" stop-color="#d5defb"/>
      <stop offset=".6" stop-color="#ced8fa"/>
      <stop offset=".7" stop-color="#c2cff9"/>
      <stop offset=".8" stop-color="#b1c1f7"/>
      <stop offset=".9" stop-color="#9baff4"/>
      <stop offset="1" stop-color="#8199f1"/>
      <stop offset="1" stop-color="#6d89ef"/>
    </linearGradient>
    <linearGradient id="linear-gradient3" x1="270.9" y1="36.4" x2="284.2" y2="36.4" xlink:href="#linear-gradient2"/>
    <linearGradient id="linear-gradient4" x1="343.2" y1="36.4" x2="356.5" y2="36.4" xlink:href="#linear-gradient2"/>
    <linearGradient id="linear-gradient5" x1="270.9" y1="78.1" x2="284.2" y2="78.1" xlink:href="#linear-gradient2"/>
    <linearGradient id="linear-gradient6" x1="270.9" y1="161.6" x2="284.2" y2="161.6" xlink:href="#linear-gradient2"/>
    <linearGradient id="linear-gradient7" x1="228.5" y1="140.9" x2="255" y2="140.9" xlink:href="#linear-gradient"/>
    <linearGradient id="linear-gradient8" x1="336.6" y1="119.9" x2="363.1" y2="119.9" xlink:href="#linear-gradient"/>
    <linearGradient id="linear-gradient9" x1="300.8" y1="99.2" x2="327.3" y2="99.2" xlink:href="#linear-gradient"/>
    <linearGradient id="linear-gradient10" x1="264.7" y1="119.7" x2="291.1" y2="119.7" xlink:href="#linear-gradient"/>
    <linearGradient id="linear-gradient11" x1="300.5" y1="57.2" x2="326.9" y2="57.2" xlink:href="#linear-gradient"/>
    <linearGradient id="linear-gradient12" x1="300.8" y1="15.7" x2="327.3" y2="15.7" xlink:href="#linear-gradient"/>
    <linearGradient id="linear-gradient13" x1="343.9" y1="78.1" x2="357.1" y2="78.1" xlink:href="#linear-gradient2"/>
    <linearGradient id="linear-gradient14" x1="300.8" y1="182.3" x2="327.3" y2="182.3" xlink:href="#linear-gradient"/>
    <linearGradient id="linear-gradient15" x1="372.8" y1="140.7" x2="399.2" y2="140.7" xlink:href="#linear-gradient"/>
    <linearGradient id="linear-gradient16" x1="372.8" y1="57.2" x2="399.2" y2="57.2" xlink:href="#linear-gradient"/>
    <linearGradient id="linear-gradient17" x1="379.4" y1="99" x2="392.6" y2="99" xlink:href="#linear-gradient2"/>
    <linearGradient id="linear-gradient18" x1="307.4" y1="140.9" x2="320.7" y2="140.9" xlink:href="#linear-gradient2"/>
    <linearGradient id="linear-gradient19" x1="343.6" y1="161.4" x2="356.8" y2="161.4" xlink:href="#linear-gradient2"/>
    <linearGradient id="linear-gradient20" x1="21.6" y1="257.9" x2="67" y2="257.9" gradientUnits="userSpaceOnUse">
      <stop offset="0" stop-color="#d7e0fc"/>
      <stop offset="0" stop-color="#c2cff9"/>
      <stop offset=".1" stop-color="#a8b9f6"/>
      <stop offset=".2" stop-color="#92a7f3"/>
      <stop offset=".3" stop-color="#8199f1"/>
      <stop offset=".4" stop-color="#7590f0"/>
      <stop offset=".6" stop-color="#6e8aef"/>
      <stop offset="1" stop-color="#6d89ef"/>
    </linearGradient>
    <linearGradient id="linear-gradient21" x1="111.3" y1="271" x2="614.1" y2="271" xlink:href="#linear-gradient20"/>
    <linearGradient id="linear-gradient22" x1="21.6" y1="297.2" x2="112.3" y2="297.2" xlink:href="#linear-gradient"/>
    <linearGradient id="linear-gradient23" x1="227.4" y1="168.9" x2="402.9" y2="168.9" gradientTransform="translate(0 656.7) scale(1 -1)" xlink:href="#linear-gradient"/>
    <linearGradient id="linear-gradient24" x1="405" y1="171" x2="229.7" y2="187.8" gradientTransform="translate(0 656.7) scale(1 -1)" gradientUnits="userSpaceOnUse">
      <stop offset="0" stop-color="#d7e0fc"/>
      <stop offset="1" stop-color="#6d89ef"/>
    </linearGradient>
    <linearGradient id="linear-gradient25" x1="309.3" y1="229.7" x2="359.3" y2="229.7" gradientTransform="translate(0 656.7) scale(1 -1)" xlink:href="#linear-gradient"/>
    <linearGradient id="linear-gradient26" x1="352.1" y1="288.4" x2="273.5" y2="379.6" gradientTransform="translate(0 656.7) scale(1 -1)" xlink:href="#linear-gradient"/>
    <linearGradient id="linear-gradient27" x1="231.3" y1="203.2" x2="449.7" y2="203.2" gradientTransform="translate(0 656.7) scale(1 -1)" gradientUnits="userSpaceOnUse">
      <stop offset=".2" stop-color="#d7e0fc"/>
      <stop offset="1" stop-color="#6d89ef"/>
    </linearGradient>
    <linearGradient id="linear-gradient28" x1="231.3" y1="184.4" x2="293.7" y2="184.4" gradientTransform="translate(0 656.7) scale(1 -1)" xlink:href="#linear-gradient"/>
    <linearGradient id="linear-gradient29" x1="293.7" y1="184.4" x2="356.2" y2="184.4" gradientTransform="translate(0 656.7) scale(1 -1)" xlink:href="#linear-gradient"/>
    <linearGradient id="linear-gradient30" x1="275.6" y1="236.9" x2="311.9" y2="236.9" gradientTransform="translate(0 656.7) scale(1 -1)" xlink:href="#linear-gradient"/>
    <linearGradient id="linear-gradient31" x1="330.8" y1="408.2" x2="238.2" y2="369" xlink:href="#linear-gradient"/>
    <linearGradient id="linear-gradient32" x1="253.1" y1="148.5" x2="315.5" y2="148.5" gradientTransform="translate(0 656.7) scale(1 -1)" xlink:href="#linear-gradient"/>
  </defs>
  <g id="Artboard1">
    <rect class="st26" width="709.1" height="429.1"/>
    <path class="st28" d="M253.8,229.8l-55.9-6.5,11.2,6.5-100.2,59.7,55.5,30.7,100.7-58.1,11.2,6.5-22.4-38.8Z"/>
    <path class="st28" d="M396.4,272.6l57-32.9,56.9,33.8,12.3-7.1-15.3,34.7-64.2,11.2,11.2-6.5-58-33.2Z"/>
    <path class="st28" d="M290.1,430.1l-57,32.9-56.9-33.8-12.3,7.1,15.3-34.7,64.2-11.2-11.2,6.5,58,33.2Z"/>
    <g>
      <g>
        <path class="st15" d="M338.4,211.5c6.3-3.7,16.6-3.7,22.9,0s6.3,9.6,0,13.2-16.6,3.7-22.9,0-6.3-9.6,0-13.2Z"/>
        <g class="st24">
          <path class="st19" d="M374.5,190.6c6.3-3.7,16.6-3.7,22.9,0s6.3,9.6,0,13.2-16.6,3.7-22.9,0-6.3-9.6,0-13.2Z"/>
        </g>
        <g class="st24">
          <path class="st19" d="M229.9,190.6c6.3-3.7,16.6-3.7,22.9,0s6.3,9.6,0,13.2-16.6,3.7-22.9,0-6.3-9.6,0-13.2Z"/>
        </g>
        <g class="st24">
          <path class="st19" d="M266.1,169.7c6.3-3.7,16.6-3.7,22.9,0s6.3,9.6,0,13.2-16.6,3.7-22.9,0-6.3-9.6,0-13.2Z"/>
        </g>
        <g class="st44">
          <path class="st19" d="M302.2,148.9c6.3-3.7,16.6-3.7,22.9,0s6.3,9.6,0,13.2-16.6,3.7-22.9,0-6.3-9.6,0-13.2Z"/>
        </g>
        <g class="st24">
          <path class="st19" d="M338.4,169.7c6.3-3.7,16.6-3.7,22.9,0s6.3,9.6,0,13.2-16.6,3.7-22.9,0-6.3-9.6,0-13.2Z"/>
        </g>
        <g class="st24">
          <path class="st19" d="M302.2,190.6c6.3-3.7,16.6-3.7,22.9,0s6.3,9.6,0,13.2-16.6,3.7-22.9,0-6.3-9.6,0-13.2Z"/>
        </g>
        <g class="st24">
          <path class="st19" d="M302.2,232.3c6.3-3.7,16.6-3.7,22.9,0s6.3,9.6,0,13.2-16.6,3.7-22.9,0-6.3-9.6,0-13.2Z"/>
        </g>
        <g class="st24">
          <path class="st19" d="M266.1,211.5c6.3-3.7,16.6-3.7,22.9,0s6.3,9.6,0,13.2-16.6,3.7-22.9,0-6.3-9.6,0-13.2Z"/>
        </g>
      </g>
      <path class="st27" d="M277.9,78.1l-.2,83.4,72.8-42-.6-83.5-72,42.1Z"/>
      <path class="st27" d="M241.4,98.6l72.3,42.1,72.3-41.7-71.8-41.5-72.8,41.1Z"/>
      <circle class="st56" cx="350.2" cy="77.9" r="13.2"/>
      <path class="st27" d="M277.9,36.2l72.6,42.3-.6,83.1-72-42.1V36.2Z"/>
      <path class="st27" d="M241.4,57.2l72.6-41.9v83.9l-72.3,41.7-.3-83.7Z"/>
      <path class="st27" d="M241.4,57.2l72.6,41.9-.3,83.3-72.3-41.7V57.2Z"/>
      <path class="st27" d="M314.4,15.5l72,41.9-.3,83.3-72.3-41.9.6-83.3Z"/>
      <circle class="st29" cx="241.4" cy="57.2" r="13.2"/>
      <circle class="st22" cx="241.7" cy="98.8" r="6.6"/>
      <circle class="st50" cx="277.6" cy="36.4" r="6.6"/>
      <circle class="st47" cx="349.9" cy="36.4" r="6.6"/>
      <circle class="st54" cx="349.9" cy="119.9" r="6.6"/>
      <circle class="st49" cx="277.6" cy="78.1" r="6.6"/>
      <circle class="st53" cx="277.6" cy="161.6" r="6.6"/>
      <circle class="st46" cx="241.7" cy="140.9" r="13.2"/>
      <path class="st27" d="M313.7,99l72.3-41.7v83.5l-72.3,41.7v-83.5Z"/>
      <circle class="st37" cx="349.9" cy="119.9" r="13.2"/>
      <circle class="st35" cx="314" cy="99.2" r="13.2"/>
      <circle class="st23" cx="277.9" cy="119.7" r="13.2"/>
      <circle class="st38" cx="313.7" cy="57.2" r="13.2"/>
      <circle class="st43" cx="314" cy="15.7" r="13.2"/>
      <circle class="st55" cx="350.5" cy="78.1" r="6.6"/>
      <circle class="st48" cx="314" cy="182.3" r="13.2"/>
      <circle class="st51" cx="386" cy="140.7" r="13.2"/>
      <circle class="st39" cx="386" cy="57.2" r="13.2"/>
      <circle class="st52" cx="386" cy="99" r="6.6"/>
      <circle class="st36" cx="314" cy="140.9" r="6.6"/>
      <circle class="st42" cx="350.2" cy="161.4" r="6.6"/>
    </g>
    <g>
      <g>
        <path class="st10" d="M459.9,335.9l-3.3,5,6-.4c-1.8-.5-3.2-2.8-2.7-4.7Z"/>
        <path class="st25" d="M460.3,338.7c18.9-10.9,103.6-59.8,103.6-59.8"/>
      </g>
      <g>
        <path class="st10" d="M566.5,160.9l-2.7-5.3-2.7,5.3c1.3-1.3,4-1.3,5.3,0Z"/>
        <path class="st25" d="M563.8,159.9v119.4"/>
      </g>
      <g>
        <path class="st10" d="M667.6,335.7l3.3,5-6-.4c1.8-.5,3.2-2.8,2.7-4.7Z"/>
        <path class="st25" d="M564.1,279.1s84.2,48.6,103.1,59.5"/>
      </g>
      <path class="st5" d="M573,212.1v82.4l35.2,20.3v-82.4l-35.2-20.3Z"/>
      <path class="st20" d="M635,217l-26.8,15.5v82.4l35.7-20.6-8.9-77.3Z"/>
      <path class="st2" d="M573,211.6l35.2-20.3,26.8,25.8-26.8,15.5-35.2-20.9Z"/>
      <g class="st24">
        <path class="st19" d="M560,359.1l35.2-20.3,30.6,19.7-30.6,21.5-35.2-20.9Z"/>
      </g>
      <g class="st24">
        <path class="st19" d="M479.5,338.2l33.6-17.6,18.8,40.7-52.3-23.1Z"/>
      </g>
      <path class="st13" d="M532.7,296.9l62.5,69v-153.5l-61.6-54.3-.8,138.8Z"/>
      <path class="st11" d="M492.5,227.4v61.8l53.5,30.9,8.9-87.6"/>
      <path class="st2" d="M492.5,227.4l35.7-20.6,26.8,25.8-62.4-5.2Z"/>
    </g>
    <g>
      <path class="st15" d="M109.5,376h-18.1L1,323.8l45.2-26.1,99.4,57.4-36.1,20.9Z"/>
      <path class="st12" d="M21.6,218.6l45.4-26.2v104.8l-45.4,26.2v-104.8Z"/>
      <path class="st7" d="M67,297.2v-104.8l90.8,52.4v104.8l-90.8-52.4Z"/>
      <path class="st2" d="M44.3,251.3v-104.8l90.8,52.4v104.8l-90.8-52.4Z"/>
      <path class="st17" d="M32.9,284.1v-104.8l90.8,52.4v104.8l-90.8-52.4Z"/>
      <path class="st21" d="M21.6,323.4v-104.8l90.8,52.4v104.8l-90.8-52.4Z"/>
      <path class="st17" d="M112.3,271l45.4-26.2v104.8l-45.4,26.2v-104.8Z"/>
      <g class="st32">
        <text class="st34" transform="translate(73.3 342.1) rotate(30) scale(1 .9) skewX(26.6)"><tspan x="0" y="0">.</tspan></text>
        <text class="st34" transform="translate(78.4 345) rotate(30) scale(1 .9) skewX(26.6)"><tspan x="0" y="0">z</tspan></text>
        <text class="st34" transform="translate(89.9 351.7) rotate(30) scale(1 .9) skewX(26.6)"><tspan x="0" y="0">i</tspan></text>
        <text class="st34" transform="translate(95 354.6) rotate(30) scale(1 .9) skewX(26.6)"><tspan x="0" y="0">p</tspan></text>
      </g>
      <g>
        <text class="st30" transform="translate(75.2 231.3) rotate(30) scale(1 .9) skewX(26.6)"><tspan x="0" y="0">.</tspan></text>
        <g class="st32">
          <text class="st33" transform="translate(80.2 234.2) rotate(30) scale(1 .9) skewX(26.6)"><tspan x="0" y="0">x</tspan></text>
          <text class="st33" transform="translate(91.6 240.8) rotate(30) scale(1 .9) skewX(26.6)"><tspan x="0" y="0">m</tspan></text>
          <text class="st33" transform="translate(113.5 253.5) rotate(30) scale(1 .9) skewX(26.6)"><tspan x="0" y="0">l</tspan></text>
        </g>
      </g>
      <g class="st32">
        <text class="st34" transform="translate(83.5 196) rotate(30) scale(1 .9) skewX(26.6)"><tspan x="0" y="0">.</tspan></text>
        <text class="st34" transform="translate(88.6 198.9) rotate(30) scale(1 .9) skewX(26.6)"><tspan x="0" y="0">h</tspan></text>
        <text class="st34" transform="translate(102.3 206.9) rotate(30) scale(1 .9) skewX(26.6)"><tspan x="0" y="0">d</tspan></text>
        <text class="st34" transform="translate(115.9 214.7) rotate(30) scale(1 .9) skewX(26.6)"><tspan x="0" y="0">5</tspan></text>
      </g>
    </g>
    <g>
      <text class="st31" transform="translate(588.5 427.5) rotate(-30) scale(1 .9) skewX(26.6)"><tspan x="0" y="0">ANAL</tspan></text>
      <text class="st31" transform="translate(658.6 387.1) rotate(-30) scale(1 .9) skewX(26.6)"><tspan x="0" y="0">Y</tspan></text>
      <text class="st40" transform="translate(675.5 377.3) rotate(-30) scale(1 .9) skewX(26.6)"><tspan x="0" y="0">ZE</tspan></text>
    </g>
    <g>
      <text class="st31" transform="translate(340.6 286.5) rotate(-30) scale(1 .9) skewX(26.6)"><tspan x="0" y="0">EXPL</tspan></text>
      <text class="st31" transform="translate(407.6 247.8) rotate(-30) scale(1 .9) skewX(26.6)"><tspan x="0" y="0">O</tspan></text>
      <text class="st40" transform="translate(427.8 236.2) rotate(-30) scale(1 .9) skewX(26.6)"><tspan x="0" y="0">RE</tspan></text>
    </g>
    <text class="st31" transform="translate(109.9 418.7) rotate(-30) scale(1 .9) skewX(26.6)"><tspan x="0" y="0">PUBLISH</tspan></text>
  </g>
  <g>
    <polygon class="st4" points="325.2 446.2 227.4 495 294.1 528.4 314.2 529.4 402.9 484.9 325.2 446.2"/>
    <g>
      <polygon class="st3" points="346.9 439.6 253.1 486.3 315.5 517.7 409.3 470.8 346.9 439.6"/>
      <polygon class="st26" points="346.9 439.6 253.1 486.3 315.5 517.7 409.3 470.8 346.9 439.6"/>
    </g>
    <polygon class="st0" points="359.3 389.6 309.3 364.5 309.3 464.5 359.3 489.4 359.3 389.6"/>
    <polygon class="st26" points="359.3 389.6 309.3 364.5 309.3 464.5 359.3 489.4 359.3 389.6"/>
    <polygon class="st6" points="346.9 345.8 246.8 395.8 296.8 420.7 396.9 370.7 346.9 345.8"/>
    <polygon class="st26" points="346.9 345.8 246.8 395.8 296.8 420.7 396.9 370.7 346.9 345.8"/>
    <polygon class="st16" points="346.9 295.8 246.8 345.8 296.8 370.7 396.9 320.7 346.9 295.8"/>
    <polygon class="st26" points="346.9 295.8 246.8 345.8 296.8 370.7 396.9 320.7 346.9 295.8"/>
    <polygon class="st8" points="293.7 422.3 231.3 453.6 293.7 484.8 356.2 453.6 293.7 422.3"/>
    <polygon class="st26" points="293.7 422.3 231.3 453.6 293.7 484.8 356.2 453.6 293.7 422.3"/>
    <polygon class="st5" points="293.7 484.8 231.3 453.6 231.3 459.8 293.7 491 293.7 484.8"/>
    <polygon class="st45" points="293.7 484.8 231.3 453.6 231.3 459.8 293.7 491 293.7 484.8"/>
    <polygon class="st20" points="356.2 453.6 293.7 484.8 293.7 491 356.2 459.8 356.2 453.6"/>
    <polygon class="st41" points="356.2 453.6 293.7 484.8 293.7 491 356.2 459.8 356.2 453.6"/>
    <path class="st14" d="M275.6,423.5h0v-17.7h36.5v20.1h0c0,2.1-1.6,4-4.5,5.5-6.6,3.3-18.2,2.9-25.8-.9-4-2.1-6.2-4.7-6.2-7.1h0Z"/>
    <path class="st26" d="M275.6,423.5h0v-17.7h36.5v20.1h0c0,2.1-1.6,4-4.5,5.5-6.6,3.3-18.2,2.9-25.8-.9-4-2.1-6.2-4.7-6.2-7.1h0Z"/>
    <polygon class="st9" points="296.8 370.7 246.8 345.8 246.8 395.8 296.8 420.7 296.8 370.7"/>
    <polygon class="st26" points="296.8 370.7 246.8 345.8 246.8 395.8 296.8 420.7 296.8 370.7"/>
    <polygon class="st17" points="296.8 420.7 359.3 389.6 359.3 489.4 396.9 470.8 396.9 320.7 296.8 370.7 296.8 420.7"/>
    <polygon class="st26" points="296.8 420.7 359.3 389.6 359.3 489.4 396.9 470.8 396.9 320.7 296.8 370.7 296.8 420.7"/>
    <path class="st18" d="M275.7,443.8c8.7-4.3,23.7-3.8,33.6,1.2,9.9,5,10.9,12.5,2.2,16.8s-23.7,3.8-33.6-1.2c-9.9-5-10.9-12.5-2.2-16.8Z"/>
    <path class="st26" d="M275.7,443.8c8.7-4.3,23.7-3.8,33.6,1.2,9.9,5,10.9,12.5,2.2,16.8s-23.7,3.8-33.6-1.2c-9.9-5-10.9-12.5-2.2-16.8Z"/>
    <polygon class="st17" points="409.3 470.8 315.5 517.7 315.5 530.1 409.3 483.2 409.3 470.8"/>
    <polygon class="st26" points="409.3 470.8 315.5 517.7 315.5 530.1 409.3 483.2 409.3 470.8"/>
    <polygon class="st1" points="315.5 517.7 253.1 486.3 253.1 499 315.5 530.1 315.5 517.7"/>
    <polygon class="st26" points="315.5 517.7 253.1 486.3 253.1 499 315.5 530.1 315.5 517.7"/>
  </g>
  <g>
    <text class="st31" transform="translate(347.4 561.4) rotate(-28.5) scale(1 .9) skewX(26.6)"><tspan x="0" y="0">CAPTURE</tspan></text>
    <text/>
  </g>
</svg>
